<?xml version="1.0" standalone="no"?>
<!DOCTYPE svg PUBLIC "-//W3C//DTD SVG 20010904//EN"
 "http://www.w3.org/TR/2001/REC-SVG-20010904/DTD/svg10.dtd">
<svg version="1.0" xmlns="http://www.w3.org/2000/svg"
 width="192.000000pt" height="192.000000pt" viewBox="0 0 192.000000 192.000000"
 preserveAspectRatio="xMidYMid meet">

<g transform="translate(0.000000,192.000000) scale(0.100000,-0.100000)"
fill="#000000" stroke="none">
<path d="M155 1160 l80 -80 120 0 121 0 13 48 c7 26 17 57 22 70 5 13 9 27 9
32 0 6 -88 10 -222 10 l-223 0 80 -80z"/>
<path d="M577 1223 c-2 -5 -14 -41 -27 -81 -23 -77 -23 -89 9 -262 5 -25 17
-94 27 -154 l18 -108 50 6 c28 3 73 6 100 6 l49 0 -6 38 c-3 20 -12 75 -21
122 -8 47 -19 119 -25 160 -6 41 -14 85 -17 98 l-6 22 151 0 c83 0 151 2 151
5 0 3 -32 39 -72 80 l-72 75 -153 0 c-83 0 -154 -3 -156 -7z"/>
<path d="M990 915 c-23 -60 -44 -117 -47 -125 -3 -8 -16 -42 -28 -75 -12 -33
-25 -68 -29 -77 -7 -16 -1 -18 55 -18 62 0 65 1 77 30 13 29 15 30 87 30 l73
0 6 -30 c5 -30 6 -30 76 -30 l70 0 -11 28 c-7 15 -15 36 -20 47 -4 11 -32 88
-62 170 l-54 150 -76 5 -76 5 -41 -110z m154 -126 c5 -28 5 -29 -38 -29 -23 0
-45 3 -49 6 -3 4 0 22 8 41 8 20 15 41 15 49 0 7 5 25 11 41 l11 28 18 -54
c10 -29 21 -66 24 -82z"/>
<path d="M1426 933 c35 -50 64 -94 64 -98 0 -3 -32 -52 -71 -108 l-70 -102 68
-3 c48 -2 70 1 76 10 4 7 23 37 41 67 l33 54 39 -66 39 -67 77 0 76 0 -69 102
c-38 56 -69 106 -69 110 0 5 24 43 53 86 28 42 56 82 60 89 6 10 -7 13 -62 13
l-69 0 -32 -51 -31 -52 -32 51 -31 51 -77 3 -77 3 64 -92z"/>
<path d="M366 878 c28 -29 64 -68 79 -85 19 -22 37 -33 56 -33 26 0 27 2 22
43 -3 23 -10 50 -14 59 -5 9 -9 28 -9 42 l0 26 -92 0 -92 0 50 -52z"/>
<path d="M510 662 c0 -24 13 -42 31 -42 15 0 17 4 10 23 -8 22 -41 37 -41 19z"/>
</g>
</svg>
